<svg width="287.091259765625px" height="122.021240234375px" xmlns="http://www.w3.org/2000/svg" viewBox="106.4543701171875 13.9893798828125 287.091259765625 122.021240234375" style="background: rgba(0, 0, 0, 0);" preserveAspectRatio="xMidYMid"><defs><filter id="editing-extrude-glow"><feFlood flood-color="#333333" result="flood-1"></feFlood><feMorphology operator="erode" radius="1" in="SourceAlpha" result="erode"></feMorphology><feComposite operator="in" in="flood-1" in2="erode" result="comp1"></feComposite><feConvolveMatrix order="3,3" divisor="1" in="comp1" result="convolve" kernelMatrix="0 0 0 1 1 1 0 0 0"></feConvolveMatrix><feOffset dx="-3" dy="0" in="convolve" result="extrude"></feOffset><feComposite operator="in" in="flood-1" in2="extrude" result="comp-extrude"></feComposite><feFlood flood-color="#000000" result="flood-2"></feFlood><feComposite operator="in" in="flood-2" in2="SourceAlpha" result="comp2"></feComposite><feMorphology operator="dilate" radius="1" in="comp2" result="dilate"></feMorphology><feOffset dx="-4.5" dy="0" in="dilate" result="offset"></feOffset><feGaussianBlur in="offset" stdDeviation="5.8" result="blur"></feGaussianBlur><feComponentTransfer in="blur" result="shadow"><feFuncA type="linear" slope="0.8" intercept="-0.2"></feFuncA></feComponentTransfer><feMerge><feMergeNode in="shadow"></feMergeNode><feMergeNode in="comp-extrude"></feMergeNode><feMergeNode in="SourceGraphic"></feMergeNode></feMerge></filter></defs><g filter="url(#editing-extrude-glow)"><g transform="translate(156.23343896865845, 104.1121883392334)"><path d="M-7.81 7.62L-7.81 7.62L-7.81 7.62Q-4.48 7.36-2.05 3.20L-2.05 3.20L-2.05 3.20Q-0.19 0 1.02-5.89L1.02-5.89L6.21-32.64L19.07-33.92L13.63-5.89L13.63-5.89Q11.52 4.80 8.26 8.32L8.26 8.32L8.26 8.32Q6.53 10.24 4.29 10.88L4.29 10.88L4.29 10.88Q2.05 11.52-0.51 11.52L-0.51 11.52L-0.51 11.52Q-5.89 11.52-7.81 7.62ZM7.23-41.54L7.23-41.54L7.23-41.54Q7.23-44.03 9.31-45.38L9.31-45.38L9.31-45.38Q11.39-46.72 14.40-46.72L14.40-46.72L14.40-46.72Q17.41-46.72 19.23-45.38L19.23-45.38L19.23-45.38Q21.06-44.03 21.06-41.54L21.06-41.54L21.06-41.54Q21.06-39.04 19.04-37.76L19.04-37.76L19.04-37.76Q17.02-36.48 14.02-36.48L14.02-36.48L14.02-36.48Q11.01-36.48 9.12-37.76L9.12-37.76L9.12-37.76Q7.23-39.04 7.23-41.54ZM40.51-22.46L40.51-22.46L40.51-22.46Q41.41-24.83 41.41-26.88L41.41-26.88L41.41-26.88Q41.41-30.66 38.34-30.66L38.34-30.66L38.34-30.66Q36.74-30.66 35.42-29.22L35.42-29.22L35.42-29.22Q34.11-27.78 34.11-25.98L34.11-25.98L34.11-25.98Q34.11-24.70 35.14-23.68L35.14-23.68L35.14-23.68Q36.61-22.27 40.38-19.97L40.38-19.97L40.38-19.97Q44.16-17.66 45.60-15.78L45.60-15.78L45.60-15.78Q47.04-13.89 47.04-11.30L47.04-11.30L47.04-11.30Q47.04-8.70 45.79-6.34L45.79-6.34L45.79-6.34Q44.54-3.97 42.30-2.30L42.30-2.30L42.30-2.30Q37.50 1.28 29.82 1.28L29.82 1.28L29.82 1.28Q25.66 1.28 22.46-0.90L22.46-0.90L22.46-0.90Q19.26-3.01 19.26-5.50L19.26-5.50L19.26-5.50Q19.26-8 21.09-9.47L21.09-9.47L21.09-9.47Q22.91-10.94 25.60-10.94L25.60-10.94L25.60-10.94Q28.29-10.94 29.95-9.92L29.95-9.92L29.95-9.92Q29.12-7.81 29.12-6.40L29.12-6.40L29.12-6.40Q29.12-2.18 32.70-2.18L32.70-2.18L32.70-2.18Q34.24-2.18 35.26-3.14L35.26-3.14L35.26-3.14Q36.29-4.10 36.29-5.76L36.29-5.76L36.29-5.76Q36.29-9.02 30.78-12.48L30.78-12.48L30.78-12.48Q26.30-15.42 25.28-16.58L25.28-16.58L25.28-16.58Q23.55-18.62 23.55-21.18L23.55-21.18L23.55-21.18Q23.55-23.74 24.77-26.18L24.77-26.18L24.77-26.18Q25.98-28.61 28.22-30.34L28.22-30.34L28.22-30.34Q32.90-33.92 41.02-33.92L41.02-33.92L41.02-33.92Q45.18-33.92 47.65-32.26L47.65-32.26L47.65-32.26Q50.11-30.59 50.11-27.78L50.11-27.78L50.11-27.78Q50.11-24.96 48.42-23.36L48.42-23.36L48.42-23.36Q46.72-21.76 43.65-21.76L43.65-21.76L43.65-21.76Q41.54-21.76 40.51-22.46ZM53.50-6.40L53.50-6.40L53.50-6.40Q53.50-8.13 54.40-12.48L54.40-12.48L57.79-29.76L54.02-29.76L54.27-31.68L54.27-31.68Q61.95-33.98 69.38-39.62L69.38-39.62L72.45-39.62L70.91-32.64L75.90-32.64L75.33-29.76L70.40-29.76L67.14-12.48L67.14-12.48Q66.30-8.51 66.30-7.17L66.30-7.17L66.30-7.17Q66.30-4.10 68.99-3.46L68.99-3.46L68.99-3.46Q68.35-1.28 66.05 0L66.05 0L66.05 0Q63.74 1.28 60.48 1.28L60.48 1.28L60.48 1.28Q57.22 1.28 55.36-0.77L55.36-0.77L55.36-0.77Q53.50-2.82 53.50-6.40ZM96.13-2.69L96.13-2.69L96.13-2.69Q93.06 1.28 85.44 1.28L85.44 1.28L85.44 1.28Q81.47 1.28 78.59-1.12L78.59-1.12L78.59-1.12Q75.71-3.52 75.71-6.98L75.71-6.98L75.71-6.98Q75.71-8.90 75.90-9.86L75.90-9.86L80.19-32.64L93.18-33.92L88.51-9.22L88.51-9.22Q88.26-7.81 88.26-6.98L88.26-6.98L88.26-6.98Q88.26-3.26 90.50-3.26L90.50-3.26L90.50-3.26Q92.99-3.26 94.78-6.66L94.78-6.66L94.78-6.66Q95.36-7.74 95.62-9.15L95.62-9.15L100.16-32.64L112.77-33.92L108.03-8.96L108.03-8.96Q107.84-8 107.84-6.98L107.84-6.98L107.84-6.98Q107.84-5.95 108.42-4.83L108.42-4.83L108.42-4.83Q108.99-3.71 110.85-3.46L110.85-3.46L110.85-3.46Q110.46-1.92 109.12-0.90L109.12-0.90L109.12-0.90Q106.30 1.28 103.26 1.28L103.26 1.28L103.26 1.28Q100.22 1.28 98.43 0.19L98.43 0.19L98.43 0.19Q96.64-0.90 96.13-2.69ZM115.39-3.07L115.39-3.07L123.33-44.80L136.32-46.08L134.34-36.29L134.34-36.29Q133.63-33.28 132.74-31.17L132.74-31.17L132.74-31.17Q134.14-32.96 137.22-33.66L137.22-33.66L137.22-33.66Q138.11-33.92 139.20-33.92L139.20-33.92L139.20-33.92Q145.15-33.92 148.42-30.30L148.42-30.30L148.42-30.30Q151.68-26.69 151.68-19.71L151.68-19.71L151.68-19.71Q151.68-10.62 146.50-4.93L146.50-4.93L146.50-4.93Q140.93 1.28 130.82 1.28L130.82 1.28L130.82 1.28Q123.84 1.28 118.59-1.02L118.59-1.02L118.59-1.02Q116.74-1.86 115.39-3.07ZM131.65-22.40L128.26-3.65L128.26-3.65Q129.60-2.50 131.26-2.50L131.26-2.50L131.26-2.50Q132.93-2.50 133.89-3.14L133.89-3.14L133.89-3.14Q134.85-3.78 135.55-5.06L135.55-5.06L135.55-5.06Q137.47-8.51 139.01-19.07L139.01-19.07L139.01-19.07Q139.46-22.08 139.46-25.09L139.46-25.09L139.46-25.09Q139.46-28.10 138.78-29.06L138.78-29.06L138.78-29.06Q138.11-30.02 136.83-30.02L136.83-30.02L136.83-30.02Q132.93-30.02 131.65-22.40L131.65-22.40ZM181.44-10.82L181.44-10.82L181.44-10.82Q183.04-9.73 183.04-7.33L183.04-7.33L183.04-7.33Q183.04-4.93 181.82-3.39L181.82-3.39L181.82-3.39Q180.61-1.86 178.62-0.83L178.62-0.83L178.62-0.83Q174.53 1.28 170.11 1.28L170.11 1.28L170.11 1.28Q165.70 1.28 163.10 0.32L163.10 0.32L163.10 0.32Q160.51-0.64 158.78-2.43L158.78-2.43L158.78-2.43Q155.39-5.82 155.39-12.03L155.39-12.03L155.39-12.03Q155.39-21.70 160.64-27.58L160.64-27.58L160.64-27.58Q166.27-33.92 176.06-33.92L176.06-33.92L176.06-33.92Q182.14-33.92 185.15-31.36L185.15-31.36L185.15-31.36Q187.39-29.44 187.39-26.30L187.39-26.30L187.39-26.30Q187.39-15.04 167.94-15.04L167.94-15.04L167.94-15.04Q167.68-13.38 167.68-11.97L167.68-11.97L167.68-11.97Q167.68-9.02 168.99-7.90L168.99-7.90L168.99-7.90Q170.30-6.78 172.74-6.78L172.74-6.78L172.74-6.78Q175.17-6.78 177.76-7.90L177.76-7.90L177.76-7.90Q180.35-9.02 181.44-10.82ZM168.38-17.79L168.38-17.79L168.38-17.79Q172.93-17.79 175.55-20.61L175.55-20.61L175.55-20.61Q178.18-23.30 178.18-27.58L178.18-27.58L178.18-27.58Q178.18-29.06 177.63-29.86L177.63-29.86L177.63-29.86Q177.09-30.66 176-30.66L176-30.66L176-30.66Q174.91-30.66 173.98-30.24L173.98-30.24L173.98-30.24Q173.06-29.82 172.10-28.42L172.10-28.42L172.10-28.42Q169.73-25.22 168.38-17.79Z" fill="#eb6c6c"></path></g></g><style>text {
  font-size: 64px;
  font-family: Arial Black;
  dominant-baseline: central;
  text-anchor: middle;
}</style></svg>